<?xml version="1.0" standalone="no"?>
<!DOCTYPE svg PUBLIC "-//W3C//DTD SVG 20010904//EN"
 "http://www.w3.org/TR/2001/REC-SVG-20010904/DTD/svg10.dtd">
<svg version="1.0" xmlns="http://www.w3.org/2000/svg"
 width="288.000000pt" height="288.000000pt" viewBox="0 0 288.000000 288.000000"
 preserveAspectRatio="xMidYMid meet">

<g transform="translate(0.000000,288.000000) scale(0.100000,-0.100000)"
fill="#ffffff" stroke="none">
<path d="M0 1440 l0 -1440 1440 0 1440 0 0 1440 0 1440 -1440 0 -1440 0 0
-1440z m2190 1078 c100 -30 190 -104 236 -195 38 -75 46 -202 18 -285 -26 -81
-125 -174 -246 -231 -51 -25 -156 -75 -232 -111 -209 -100 -326 -175 -431
-281 -110 -110 -142 -170 -273 -516 -101 -265 -129 -325 -181 -389 -53 -65
-78 -86 -150 -121 -60 -28 -72 -31 -150 -27 -70 3 -96 9 -141 31 -148 76 -239
243 -210 389 15 79 42 130 103 190 61 61 95 82 283 179 336 171 515 310 625
484 57 90 162 314 213 455 77 213 115 281 192 349 97 85 225 114 344 79z
m-1088 -172 c30 -40 62 -90 123 -191 11 -19 46 -76 79 -129 56 -91 58 -98 54
-148 -10 -118 -123 -263 -253 -327 -37 -18 -74 -31 -83 -29 -15 3 -92 114
-275 398 -30 47 -99 153 -153 235 -105 161 -121 193 -111 219 6 14 36 16 296
16 l290 0 33 -44z m740 -1018 c9 -7 40 -49 70 -93 52 -76 84 -123 263 -385
218 -319 275 -405 275 -420 0 -38 -16 -40 -310 -40 -332 0 -287 -16 -385 135
-33 50 -103 157 -157 239 -54 82 -98 156 -98 165 1 33 28 128 54 184 31 72
121 163 197 200 60 31 69 32 91 15z"/>
</g>
</svg>
